<svg xmlns="http://www.w3.org/2000/svg" width="150" height="190"><path fill-rule="evenodd" clip-rule="evenodd" d="M111.715 61.395c-3.207-3.664-7.121-8.436-5.889-12.255 1.488-4.608 6.721-5.234 9.262-.192 4.496-2.514 9.404.193 8.154 4.793-1.064 3.919-6.861 6.113-11.527 7.654zm-2.99 13.963c-1.545 5.791-10.096 8.988-16.98 11.231-4.77-5.445-10.592-12.535-8.799-18.175 2.162-6.805 9.889-7.689 13.688-.211 6.624-3.681 13.901.361 12.091 7.155zm-43.748 65.146c-3.535-3.513-15.571-15.674-24.894-25.089-23.024-23.416 9.646-55.524 32.89-32.421 0 0 13.66 13.918 24.805 24.999 23.355 23.543-9.401 55.778-32.801 32.511zm2.449-51.414c-8.073-8.023-16.976-6.415-22.218-1.263-5.251 5.161-6.965 14.013 1.043 22.153l12.434 12.659 21.114-20.953L67.426 89.09zm36.361 4.189c1.488-4.606 6.721-5.232 9.262-.193 4.496-2.513 9.404.191 8.154 4.789-1.066 3.918-6.863 6.11-11.529 7.652-3.207-3.662-7.121-8.431-5.887-12.248z"/></svg>
